<svg width="1100" height="5000" xmlns="http://www.w3.org/2000/svg" xmlns:xlink="http://www.w3.org/1999/xlink"><g transform="translate(500, 100)"><g fill="none" font-size="10" font-family="UFO-Font;sans-serif" text-anchor="end" class="timeline-axis"><path class="domain" stroke="currentColor" d="M-6,0.5H0.5V4900.5H-6"/><g class="tick" opacity="1" transform="translate(0,0.5267893070207667)"><line stroke="currentColor" x2="-6"/><text fill="currentColor" x="-9" dy="0.32em">1910</text></g><g class="tick" opacity="1" transform="translate(0,470.1326256582516)"><line stroke="currentColor" x2="-6"/><text fill="currentColor" x="-9" dy="0.32em">1920</text></g><g class="tick" opacity="1" transform="translate(0,939.867050683182)"><line stroke="currentColor" x2="-6"/><text fill="currentColor" x="-9" dy="0.32em">1930</text></g><g class="tick" opacity="1" transform="translate(0,1409.4728870344127)"><line stroke="currentColor" x2="-6"/><text fill="currentColor" x="-9" dy="0.32em">1940</text></g><g class="tick" opacity="1" transform="translate(0,1879.2073120593432)"><line stroke="currentColor" x2="-6"/><text fill="currentColor" x="-9" dy="0.32em">1950</text></g><g class="tick" opacity="1" transform="translate(0,2348.8131484105743)"><line stroke="currentColor" x2="-6"/><text fill="currentColor" x="-9" dy="0.32em">1960</text></g><g class="tick" opacity="1" transform="translate(0,2818.5475734355045)"><line stroke="currentColor" x2="-6"/><text fill="currentColor" x="-9" dy="0.32em">1970</text></g><g class="tick" opacity="1" transform="translate(0,3288.1534097867357)"><line stroke="currentColor" x2="-6"/><text fill="currentColor" x="-9" dy="0.32em">1980</text></g><g class="tick" opacity="1" transform="translate(0,3757.8878348116655)"><line stroke="currentColor" x2="-6"/><text fill="currentColor" x="-9" dy="0.32em">1990</text></g><g class="tick" opacity="1" transform="translate(0,4227.493671162897)"><line stroke="currentColor" x2="-6"/><text fill="currentColor" x="-9" dy="0.32em">2000</text></g><g class="tick" opacity="1" transform="translate(0,4697.228096187827)"><line stroke="currentColor" x2="-6"/><text fill="currentColor" x="-9" dy="0.32em">2010</text></g></g><rect x="10" y="4817.960426179604" width="535.6132075471698" height="1.9862488846904398" fill="lightgrey"/><rect x="10" y="4864.8952920799875" width="531.3679245283018" height="1.9862488846904398" fill="lightgrey"/><rect x="10" y="2328.612292027502" width="4.245283018867925" height="1.9862488846904398" fill="lightgrey"/><rect x="10" y="2563.543798876817" width="10.61320754716981" height="1.9862488846904398" fill="lightgrey"/><rect x="10" y="2798.3467170524327" width="12.735849056603772" height="1.9862488846904398" fill="lightgrey"/><rect x="10" y="3408.8857397785127" width="13.443396226415093" height="1.9862488846904398" fill="lightgrey"/><rect x="10" y="3596.7537920537447" width="15.566037735849058" height="1.9862488846904398" fill="lightgrey"/><rect x="10" y="3643.688657954128" width="16.9811320754717" height="1.9862488846904398" fill="lightgrey"/><rect x="10" y="3690.7521125282105" width="27.594339622641506" height="1.9862488846904398" fill="lightgrey"/><rect x="10" y="3784.621844328977" width="19.10377358490566" height="1.9862488846904398" fill="lightgrey"/><rect x="10" y="4019.4247625045923" width="95.51886792452831" height="1.9862488846904398" fill="lightgrey"/><rect x="10" y="4066.488217078675" width="42.45283018867924" height="1.9862488846904398" fill="lightgrey"/><rect x="10" y="4160.357948879441" width="91.27358490566039" height="1.9862488846904398" fill="lightgrey"/><rect x="10" y="4207.292814779825" width="180.42452830188677" height="1.9862488846904398" fill="lightgrey"/><rect x="10" y="4254.356269353907" width="159.90566037735852" height="1.9862488846904398" fill="lightgrey"/><rect x="10" y="4301.291135254291" width="208.72641509433964" height="1.9862488846904398" fill="lightgrey"/><rect x="10" y="4348.226001154674" width="236.32075471698113" height="1.9862488846904398" fill="lightgrey"/><rect x="10" y="4395.160867055057" width="266.74528301886795" height="1.9862488846904398" fill="lightgrey"/><rect x="10" y="4442.22432162914" width="302.83018867924534" height="1.9862488846904398" fill="lightgrey"/><rect x="10" y="4489.1591875295235" width="186.79245283018867" height="1.9862488846904398" fill="lightgrey"/><rect x="10" y="4536.094053429906" width="228.53773584905662" height="1.9862488846904398" fill="lightgrey"/><rect x="10" y="4583.028919330289" width="260.37735849056605" height="1.9862488846904398" fill="lightgrey"/><rect x="10" y="4630.092373904372" width="295.75471698113205" height="1.9862488846904398" fill="lightgrey"/><rect x="10" y="4677.0272398047555" width="280.188679245283" height="1.9862488846904398" fill="lightgrey"/><rect x="10" y="4723.962105705138" width="304.2452830188679" height="1.9862488846904398" fill="lightgrey"/><rect x="10" y="4770.896971605522" width="397.64150943396226" height="1.9862488846904398" fill="lightgrey"/><rect x="10" y="2234.742560226736" width="8.49056603773585" height="1.9862488846904398" fill="lightgrey"/><rect x="10" y="2657.4135306775834" width="12.028301886792452" height="1.9862488846904398" fill="lightgrey"/><rect x="10" y="2751.4118511520496" width="16.9811320754717" height="1.9862488846904398" fill="lightgrey"/><rect x="10" y="2939.2799034272816" width="12.735849056603772" height="1.9862488846904398" fill="lightgrey"/><rect x="10" y="3174.082821602897" width="19.10377358490566" height="1.9862488846904398" fill="lightgrey"/><rect x="10" y="3221.0176875032807" width="31.839622641509436" height="1.9862488846904398" fill="lightgrey"/><rect x="10" y="3267.9525534036634" width="16.9811320754717" height="1.9862488846904398" fill="lightgrey"/><rect x="10" y="3455.820605678896" width="11.320754716981131" height="1.9862488846904398" fill="lightgrey"/><rect x="10" y="3502.8840602529785" width="12.028301886792452" height="1.9862488846904398" fill="lightgrey"/><rect x="10" y="3878.620164803443" width="19.81132075471698" height="1.9862488846904398" fill="lightgrey"/><rect x="10" y="4113.423082979059" width="65.09433962264151" height="1.9862488846904398" fill="lightgrey"/><rect x="10" y="1295.4022988505747" width="0.7075471698113207" height="1.9862488846904398" fill="lightgrey"/><rect x="10" y="1577.1400829265733" width="1.4150943396226414" height="1.9862488846904398" fill="lightgrey"/><rect x="10" y="1765.0081352018055" width="2.1226415094339623" height="1.9862488846904398" fill="lightgrey"/><rect x="10" y="1812.0715897758885" width="1.4150943396226414" height="1.9862488846904398" fill="lightgrey"/><rect x="10" y="1859.0064556762713" width="2.830188679245283" height="1.9862488846904398" fill="lightgrey"/><rect x="10" y="1905.9413215766547" width="1.4150943396226414" height="1.9862488846904398" fill="lightgrey"/><rect x="10" y="1952.8761874770378" width="1.4150943396226414" height="1.9862488846904398" fill="lightgrey"/><rect x="10" y="1999.9396420511207" width="2.830188679245283" height="1.9862488846904398" fill="lightgrey"/><rect x="10" y="2046.8745079515036" width="2.830188679245283" height="1.9862488846904398" fill="lightgrey"/><rect x="10" y="2093.809373851887" width="3.537735849056604" height="1.9862488846904398" fill="lightgrey"/><rect x="10" y="2140.74423975227" width="2.830188679245283" height="1.9862488846904398" fill="lightgrey"/><rect x="10" y="2281.6774261271194" width="2.830188679245283" height="1.9862488846904398" fill="lightgrey"/><rect x="10" y="2375.675746601585" width="7.783018867924529" height="1.9862488846904398" fill="lightgrey"/><rect x="10" y="2422.6106125019683" width="4.245283018867925" height="1.9862488846904398" fill="lightgrey"/><rect x="10" y="2469.545478402351" width="7.075471698113208" height="1.9862488846904398" fill="lightgrey"/><rect x="10" y="2516.4803443027345" width="6.367924528301886" height="1.9862488846904398" fill="lightgrey"/><rect x="10" y="2610.4786647772003" width="21.22641509433962" height="1.9862488846904398" fill="lightgrey"/><rect x="10" y="2704.348396577967" width="19.10377358490566" height="1.9862488846904398" fill="lightgrey"/><rect x="10" y="2845.2815829528163" width="7.783018867924529" height="1.9862488846904398" fill="lightgrey"/><rect x="10" y="2892.216448853199" width="7.783018867924529" height="1.9862488846904398" fill="lightgrey"/><rect x="10" y="2986.2147693276647" width="16.9811320754717" height="1.9862488846904398" fill="lightgrey"/><rect x="10" y="3033.1496352280483" width="23.349056603773583" height="1.9862488846904398" fill="lightgrey"/><rect x="10" y="3080.0845011284314" width="26.886792452830186" height="1.9862488846904398" fill="lightgrey"/><rect x="10" y="3127.147955702514" width="17.68867924528302" height="1.9862488846904398" fill="lightgrey"/><rect x="10" y="3315.016007977746" width="16.27358490566038" height="1.9862488846904398" fill="lightgrey"/><rect x="10" y="3361.950873878129" width="14.858490566037737" height="1.9862488846904398" fill="lightgrey"/><rect x="10" y="3549.8189261533616" width="14.858490566037737" height="1.9862488846904398" fill="lightgrey"/><rect x="10" y="3737.6869784285936" width="13.443396226415093" height="1.9862488846904398" fill="lightgrey"/><rect x="10" y="3831.5567102293603" width="17.68867924528302" height="1.9862488846904398" fill="lightgrey"/><rect x="10" y="3925.5550307038266" width="23.349056603773583" height="1.9862488846904398" fill="lightgrey"/><rect x="10" y="3972.489896604209" width="34.66981132075472" height="1.9862488846904398" fill="lightgrey"/><rect x="10" y="3178.0690704875874" width="12.028301886792452" height="1.9862488846904398" fill="lightgrey"/><rect x="10" y="3741.673227313284" width="10.61320754716981" height="1.9862488846904398" fill="lightgrey"/><rect x="10" y="4023.4110113892825" width="60.84905660377359" height="1.9862488846904398" fill="lightgrey"/><rect x="10" y="4211.279063664515" width="232.7830188679245" height="1.9862488846904398" fill="lightgrey"/><rect x="10" y="4352.212250039364" width="198.1132075471698" height="1.9862488846904398" fill="lightgrey"/><rect x="10" y="4774.883220490212" width="334.66981132075466" height="1.9862488846904398" fill="lightgrey"/><rect x="10" y="4821.946675064294" width="435.84905660377353" height="1.9862488846904398" fill="lightgrey"/><rect x="10" y="4868.881540964678" width="469.10377358490564" height="1.9862488846904398" fill="lightgrey"/><rect x="10" y="4399.147115939747" width="284.4339622641509" height="1.9862488846904398" fill="lightgrey"/><rect x="10" y="4446.21057051383" width="223.58490566037733" height="1.9862488846904398" fill="lightgrey"/><rect x="10" y="4681.013488689445" width="360.14150943396226" height="1.9862488846904398" fill="lightgrey"/><rect x="10" y="4727.948354589828" width="267.45283018867923" height="1.9862488846904398" fill="lightgrey"/><rect x="10" y="4493.145436414213" width="304.2452830188679" height="1.9862488846904398" fill="lightgrey"/><rect x="10" y="4540.080302314596" width="173.3490566037736" height="1.9862488846904398" fill="lightgrey"/><rect x="10" y="2238.728809111426" width="5.660377358490566" height="1.9862488846904398" fill="lightgrey"/><rect x="10" y="2614.4649136618905" width="6.367924528301886" height="1.9862488846904398" fill="lightgrey"/><rect x="10" y="2661.3997795622736" width="12.028301886792452" height="1.9862488846904398" fill="lightgrey"/><rect x="10" y="2708.3346454626567" width="13.443396226415093" height="1.9862488846904398" fill="lightgrey"/><rect x="10" y="3084.0707500131216" width="11.320754716981131" height="1.9862488846904398" fill="lightgrey"/><rect x="10" y="4164.344197764132" width="135.14150943396226" height="1.9862488846904398" fill="lightgrey"/><rect x="10" y="4258.342518238597" width="170.5188679245283" height="1.9862488846904398" fill="lightgrey"/><rect x="10" y="4305.277384138981" width="199.52830188679246" height="1.9862488846904398" fill="lightgrey"/><rect x="10" y="4587.015168214979" width="258.25471698113205" height="1.9862488846904398" fill="lightgrey"/><rect x="10" y="4634.078622789062" width="221.46226415094338" height="1.9862488846904398" fill="lightgrey"/><rect x="10" y="3271.9388022883536" width="16.9811320754717" height="1.9862488846904398" fill="lightgrey"/><rect x="10" y="3365.9371227628194" width="12.028301886792452" height="1.9862488846904398" fill="lightgrey"/><rect x="10" y="4117.409331863749" width="31.839622641509436" height="1.9862488846904398" fill="lightgrey"/><rect x="10" y="2755.39810003674" width="7.783018867924529" height="1.9862488846904398" fill="lightgrey"/><rect x="10" y="4070.474465963365" width="32.54716981132076" height="1.9862488846904398" fill="lightgrey"/><rect x="10" y="1722.0595181861124" width="1.4150943396226414" height="1.9862488846904398" fill="lightgrey"/><rect x="10" y="2191.793943211043" width="2.830188679245283" height="1.9862488846904398" fill="lightgrey"/><rect x="10" y="3319.0022568624363" width="14.150943396226417" height="1.9862488846904398" fill="lightgrey"/><rect x="10" y="2990.201018212355" width="14.150943396226417" height="1.9862488846904398" fill="lightgrey"/><rect x="10" y="3647.674906838818" width="7.783018867924529" height="1.9862488846904398" fill="lightgrey"/><rect x="10" y="2332.598540912192" width="2.1226415094339623" height="1.9862488846904398" fill="lightgrey"/><rect x="10" y="3600.7400409384345" width="11.320754716981131" height="1.9862488846904398" fill="lightgrey"/><rect x="10" y="3929.5412795885163" width="11.320754716981131" height="1.9862488846904398" fill="lightgrey"/><rect x="10" y="2567.5300477615074" width="7.075471698113208" height="1.9862488846904398" fill="lightgrey"/><rect x="10" y="3553.805175038052" width="9.90566037735849" height="1.9862488846904398" fill="lightgrey"/><rect x="10" y="3882.606413688133" width="10.61320754716981" height="1.9862488846904398" fill="lightgrey"/><rect x="10" y="2896.2026977378887" width="10.61320754716981" height="1.9862488846904398" fill="lightgrey"/><rect x="10" y="3835.5429591140505" width="15.566037735849058" height="1.9862488846904398" fill="lightgrey"/><rect x="10" y="2849.2678318375056" width="7.075471698113208" height="1.9862488846904398" fill="lightgrey"/><rect x="10" y="3037.135884112738" width="12.735849056603772" height="1.9862488846904398" fill="lightgrey"/><rect x="10" y="3976.476145488899" width="19.10377358490566" height="1.9862488846904398" fill="lightgrey"/><rect x="10" y="3788.608093213667" width="12.028301886792452" height="1.9862488846904398" fill="lightgrey"/><rect x="10" y="3131.1342045872043" width="14.858490566037737" height="1.9862488846904398" fill="lightgrey"/><rect x="10" y="2802.332965937123" width="2.830188679245283" height="1.9862488846904398" fill="lightgrey"/><rect x="10" y="3412.8719886632025" width="12.028301886792452" height="1.9862488846904398" fill="lightgrey"/><rect x="10" y="3225.00393638797" width="11.320754716981131" height="1.9862488846904398" fill="lightgrey"/><rect x="10" y="3694.7383614129008" width="9.19811320754717" height="1.9862488846904398" fill="lightgrey"/><rect x="10" y="2943.266152311972" width="7.075471698113208" height="1.9862488846904398" fill="lightgrey"/><rect x="10" y="3459.806854563586" width="6.367924528301886" height="1.9862488846904398" fill="lightgrey"/><rect x="10" y="2473.531727287041" width="5.660377358490566" height="1.9862488846904398" fill="lightgrey"/><rect x="10" y="3506.8703091376688" width="9.19811320754717" height="1.9862488846904398" fill="lightgrey"/><rect x="10" y="2097.795622736577" width="2.1226415094339623" height="1.9862488846904398" fill="lightgrey"/><rect x="10" y="2379.661995486275" width="3.537735849056604" height="1.9862488846904398" fill="lightgrey"/><rect x="10" y="2003.9258909358107" width="1.4150943396226414" height="1.9862488846904398" fill="lightgrey"/><rect x="10" y="1158.4553613604157" width="0.7075471698113207" height="1.9862488846904398" fill="lightgrey"/><rect x="10" y="2285.663675011809" width="2.830188679245283" height="1.9862488846904398" fill="lightgrey"/><rect x="10" y="2426.5968613866585" width="1.4150943396226414" height="1.9862488846904398" fill="lightgrey"/><rect x="10" y="1862.9927045609613" width="0.7075471698113207" height="1.9862488846904398" fill="lightgrey"/><rect x="10" y="2994.0586784233456" width="24.056603773584904" height="1.9862488846904398" fill="lightgrey"/><rect x="10" y="4027.2686716002727" width="54.48113207547169" height="1.9862488846904398" fill="lightgrey"/><rect x="10" y="4168.201857975122" width="135.14150943396226" height="1.9862488846904398" fill="lightgrey"/><rect x="10" y="4403.004776150738" width="261.08490566037733" height="1.9862488846904398" fill="lightgrey"/><rect x="10" y="4590.87282842597" width="251.17924528301887" height="1.9862488846904398" fill="lightgrey"/><rect x="10" y="4825.804335275285" width="401.1792452830189" height="1.9862488846904398" fill="lightgrey"/><rect x="10" y="4215.136723875505" width="190.33018867924528" height="1.9862488846904398" fill="lightgrey"/><rect x="10" y="4450.068230724821" width="262.5" height="1.9862488846904398" fill="lightgrey"/><rect x="10" y="4637.936283000053" width="318.39622641509436" height="1.9862488846904398" fill="lightgrey"/><rect x="10" y="3275.7964624993438" width="9.90566037735849" height="1.9862488846904398" fill="lightgrey"/><rect x="10" y="4778.7408807012025" width="391.2735849056604" height="1.9862488846904398" fill="lightgrey"/><rect x="10" y="2571.3877079724975" width="2.830188679245283" height="1.9862488846904398" fill="lightgrey"/><rect x="10" y="2759.25576024773" width="12.028301886792452" height="1.9862488846904398" fill="lightgrey"/><rect x="10" y="4262.200178449588" width="181.1320754716981" height="1.9862488846904398" fill="lightgrey"/><rect x="10" y="4356.069910250354" width="169.81132075471697" height="1.9862488846904398" fill="lightgrey"/><rect x="10" y="4497.003096625203" width="290.8018867924528" height="1.9862488846904398" fill="lightgrey"/><rect x="10" y="4731.806014800819" width="283.72641509433964" height="1.9862488846904398" fill="lightgrey"/><rect x="10" y="3134.9918647981945" width="12.028301886792452" height="1.9862488846904398" fill="lightgrey"/><rect x="10" y="3228.8615965989607" width="16.27358490566038" height="1.9862488846904398" fill="lightgrey"/><rect x="10" y="3698.5960216238914" width="19.81132075471698" height="1.9862488846904398" fill="lightgrey"/><rect x="10" y="4121.2669920747385" width="66.50943396226415" height="1.9862488846904398" fill="lightgrey"/><rect x="10" y="4543.937962525586" width="234.19811320754718" height="1.9862488846904398" fill="lightgrey"/><rect x="10" y="4684.871148900435" width="184.66981132075472" height="1.9862488846904398" fill="lightgrey"/><rect x="10" y="4872.739201175667" width="466.9811320754717" height="1.9862488846904398" fill="lightgrey"/><rect x="10" y="3745.5308875242745" width="21.22641509433962" height="1.9862488846904398" fill="lightgrey"/><rect x="10" y="2524.324253398415" width="2.830188679245283" height="1.9862488846904398" fill="lightgrey"/><rect x="10" y="3463.664514774576" width="5.660377358490566" height="1.9862488846904398" fill="lightgrey"/><rect x="10" y="3557.662835249042" width="12.735849056603772" height="1.9862488846904398" fill="lightgrey"/><rect x="10" y="4309.135044349971" width="142.9245283018868" height="1.9862488846904398" fill="lightgrey"/><rect x="10" y="3980.3338056998896" width="34.66981132075472" height="1.9862488846904398" fill="lightgrey"/><rect x="10" y="2900.0603579488793" width="7.075471698113208" height="1.9862488846904398" fill="lightgrey"/><rect x="10" y="3792.4657534246576" width="16.27358490566038" height="1.9862488846904398" fill="lightgrey"/><rect x="10" y="3087.9284102241118" width="19.10377358490566" height="1.9862488846904398" fill="lightgrey"/><rect x="10" y="4074.332126174356" width="33.25471698113208" height="1.9862488846904398" fill="lightgrey"/><rect x="10" y="2336.456201123183" width="2.1226415094339623" height="1.9862488846904398" fill="lightgrey"/><rect x="10" y="2806.1906261481136" width="10.61320754716981" height="1.9862488846904398" fill="lightgrey"/><rect x="10" y="3322.859917073427" width="16.9811320754717" height="1.9862488846904398" fill="lightgrey"/><rect x="10" y="3933.3989397995065" width="12.028301886792452" height="1.9862488846904398" fill="lightgrey"/><rect x="10" y="3651.532567049808" width="14.858490566037737" height="1.9862488846904398" fill="lightgrey"/><rect x="10" y="3040.9935443237287" width="16.27358490566038" height="1.9862488846904398" fill="lightgrey"/><rect x="10" y="3604.597701149425" width="14.858490566037737" height="1.9862488846904398" fill="lightgrey"/><rect x="10" y="3510.7279693486594" width="12.735849056603772" height="1.9862488846904398" fill="lightgrey"/><rect x="10" y="2289.5213352227997" width="2.1226415094339623" height="1.9862488846904398" fill="lightgrey"/><rect x="10" y="3181.926730698578" width="7.783018867924529" height="1.9862488846904398" fill="lightgrey"/><rect x="10" y="3886.464073899124" width="20.5188679245283" height="1.9862488846904398" fill="lightgrey"/><rect x="10" y="2947.123812522962" width="7.075471698113208" height="1.9862488846904398" fill="lightgrey"/><rect x="10" y="2242.5864693224166" width="4.952830188679245" height="1.9862488846904398" fill="lightgrey"/><rect x="10" y="2665.257439773264" width="10.61320754716981" height="1.9862488846904398" fill="lightgrey"/><rect x="10" y="2712.1923056736473" width="10.61320754716981" height="1.9862488846904398" fill="lightgrey"/><rect x="10" y="2430.4545215976486" width="4.245283018867925" height="1.9862488846904398" fill="lightgrey"/><rect x="10" y="3839.4006193250407" width="9.90566037735849" height="1.9862488846904398" fill="lightgrey"/><rect x="10" y="2853.125492048496" width="7.783018867924529" height="1.9862488846904398" fill="lightgrey"/><rect x="10" y="3416.729648874193" width="10.61320754716981" height="1.9862488846904398" fill="lightgrey"/><rect x="10" y="2477.3893874980317" width="1.4150943396226414" height="1.9862488846904398" fill="lightgrey"/><rect x="10" y="2618.322573872881" width="10.61320754716981" height="1.9862488846904398" fill="lightgrey"/><rect x="10" y="3369.79478297381" width="7.075471698113208" height="1.9862488846904398" fill="lightgrey"/><rect x="10" y="1913.785230672335" width="1.4150943396226414" height="1.9862488846904398" fill="lightgrey"/><rect x="10" y="1584.9839920222537" width="0.7075471698113207" height="1.9862488846904398" fill="lightgrey"/><rect x="10" y="2007.7835511468008" width="1.4150943396226414" height="1.9862488846904398" fill="lightgrey"/><rect x="10" y="2054.718417047184" width="1.4150943396226414" height="1.9862488846904398" fill="lightgrey"/><rect x="10" y="2101.6532829475673" width="2.1226415094339623" height="1.9862488846904398" fill="lightgrey"/><rect x="10" y="1256.311342045872" width="0.7075471698113207" height="1.9862488846904398" fill="lightgrey"/><rect x="10" y="2148.5881488479504" width="2.1226415094339623" height="1.9862488846904398" fill="lightgrey"/><rect x="10" y="2195.651603422033" width="2.1226415094339623" height="1.9862488846904398" fill="lightgrey"/><rect x="10" y="1866.850364771952" width="2.1226415094339623" height="1.9862488846904398" fill="lightgrey"/><rect x="10" y="2383.5196556972655" width="0.7075471698113207" height="1.9862488846904398" fill="lightgrey"/><rect x="10" y="3044.979793208419" width="13.443396226415093" height="1.9862488846904398" fill="lightgrey"/><rect x="10" y="4031.254920484963" width="67.21698113207547" height="1.9862488846904398" fill="lightgrey"/><rect x="10" y="4219.122972760195" width="267.45283018867923" height="1.9862488846904398" fill="lightgrey"/><rect x="10" y="4266.186427334278" width="133.72641509433961" height="1.9862488846904398" fill="lightgrey"/><rect x="10" y="4782.727129585892" width="268.16037735849056" height="1.9862488846904398" fill="lightgrey"/><rect x="10" y="4876.725450060358" width="479.7169811320755" height="1.9862488846904398" fill="lightgrey"/><rect x="10" y="4360.056159135044" width="161.32075471698113" height="1.9862488846904398" fill="lightgrey"/><rect x="10" y="4454.05447960951" width="176.17924528301887" height="1.9862488846904398" fill="lightgrey"/><rect x="10" y="4594.85907731066" width="223.58490566037733" height="1.9862488846904398" fill="lightgrey"/><rect x="10" y="4641.922531884742" width="268.8679245283019" height="1.9862488846904398" fill="lightgrey"/><rect x="10" y="4829.790584159975" width="474.7641509433962" height="1.9862488846904398" fill="lightgrey"/><rect x="10" y="2669.2436886579544" width="4.952830188679245" height="1.9862488846904398" fill="lightgrey"/><rect x="10" y="4688.857397785126" width="186.79245283018867" height="1.9862488846904398" fill="lightgrey"/><rect x="10" y="4125.25324095943" width="74.29245283018868" height="1.9862488846904398" fill="lightgrey"/><rect x="10" y="4547.924211410276" width="235.6132075471698" height="1.9862488846904398" fill="lightgrey"/><rect x="10" y="4172.188106859812" width="126.65094339622641" height="1.9862488846904398" fill="lightgrey"/><rect x="10" y="4406.991025035428" width="272.4056603773585" height="1.9862488846904398" fill="lightgrey"/><rect x="10" y="4500.989345509894" width="255.42452830188677" height="1.9862488846904398" fill="lightgrey"/><rect x="10" y="4735.792263685509" width="206.60377358490564" height="1.9862488846904398" fill="lightgrey"/><rect x="10" y="3420.7158977588833" width="5.660377358490566" height="1.9862488846904398" fill="lightgrey"/><rect x="10" y="4078.3183750590456" width="46.698113207547166" height="1.9862488846904398" fill="lightgrey"/><rect x="10" y="2998.0449273080353" width="7.783018867924529" height="1.9862488846904398" fill="lightgrey"/><rect x="10" y="4313.121293234662" width="154.24528301886795" height="1.9862488846904398" fill="lightgrey"/><rect x="10" y="3091.914659108802" width="14.150943396226417" height="1.9862488846904398" fill="lightgrey"/><rect x="10" y="2622.308822757571" width="6.367924528301886" height="1.9862488846904398" fill="lightgrey"/><rect x="10" y="3561.649084133732" width="6.367924528301886" height="1.9862488846904398" fill="lightgrey"/><rect x="10" y="3326.8461659581167" width="3.537735849056604" height="1.9862488846904398" fill="lightgrey"/><rect x="10" y="2528.310502283105" width="0.7075471698113207" height="1.9862488846904398" fill="lightgrey"/><rect x="10" y="3373.7810318585" width="7.075471698113208" height="1.9862488846904398" fill="lightgrey"/><rect x="10" y="2340.4424500078726" width="1.4150943396226414" height="1.9862488846904398" fill="lightgrey"/><rect x="10" y="2105.6395318322575" width="1.4150943396226414" height="1.9862488846904398" fill="lightgrey"/><rect x="10" y="2810.176875032803" width="4.952830188679245" height="1.9862488846904398" fill="lightgrey"/><rect x="10" y="3185.9129795832673" width="9.19811320754717" height="1.9862488846904398" fill="lightgrey"/><rect x="10" y="3843.386868209731" width="9.19811320754717" height="1.9862488846904398" fill="lightgrey"/><rect x="10" y="2763.24200913242" width="3.537735849056604" height="1.9862488846904398" fill="lightgrey"/><rect x="10" y="2857.1117409331864" width="3.537735849056604" height="1.9862488846904398" fill="lightgrey"/><rect x="10" y="2951.110061407652" width="4.245283018867925" height="1.9862488846904398" fill="lightgrey"/><rect x="10" y="3702.582270508581" width="9.90566037735849" height="1.9862488846904398" fill="lightgrey"/><rect x="10" y="3279.782711384034" width="9.90566037735849" height="1.9862488846904398" fill="lightgrey"/><rect x="10" y="3984.32005458458" width="16.9811320754717" height="1.9862488846904398" fill="lightgrey"/><rect x="10" y="3749.5171364089647" width="13.443396226415093" height="1.9862488846904398" fill="lightgrey"/><rect x="10" y="3655.5188159344984" width="9.19811320754717" height="1.9862488846904398" fill="lightgrey"/><rect x="10" y="3514.714218233349" width="7.783018867924529" height="1.9862488846904398" fill="lightgrey"/><rect x="10" y="2387.5059045819557" width="2.1226415094339623" height="1.9862488846904398" fill="lightgrey"/><rect x="10" y="3937.385188684197" width="9.19811320754717" height="1.9862488846904398" fill="lightgrey"/><rect x="10" y="2058.7046659318744" width="2.830188679245283" height="1.9862488846904398" fill="lightgrey"/><rect x="10" y="3138.9781136828847" width="9.19811320754717" height="1.9862488846904398" fill="lightgrey"/><rect x="10" y="3796.452002309348" width="9.90566037735849" height="1.9862488846904398" fill="lightgrey"/><rect x="10" y="3232.847845483651" width="10.61320754716981" height="1.9862488846904398" fill="lightgrey"/><rect x="10" y="3890.4503227838136" width="7.075471698113208" height="1.9862488846904398" fill="lightgrey"/><rect x="10" y="3608.5839500341153" width="5.660377358490566" height="1.9862488846904398" fill="lightgrey"/><rect x="10" y="1964.7063454574081" width="0.7075471698113207" height="1.9862488846904398" fill="lightgrey"/><rect x="10" y="2904.0466068335695" width="2.830188679245283" height="1.9862488846904398" fill="lightgrey"/><rect x="10" y="2434.440770482339" width="1.4150943396226414" height="1.9862488846904398" fill="lightgrey"/><rect x="10" y="2481.3756363827215" width="2.830188679245283" height="1.9862488846904398" fill="lightgrey"/><rect x="10" y="2246.5727182071064" width="1.4150943396226414" height="1.9862488846904398" fill="lightgrey"/><rect x="10" y="3467.6507636592664" width="4.245283018867925" height="1.9862488846904398" fill="lightgrey"/><rect x="10" y="2199.6378523067233" width="0.7075471698113207" height="1.9862488846904398" fill="lightgrey"/><rect x="10" y="2575.3739568571877" width="2.830188679245283" height="1.9862488846904398" fill="lightgrey"/><rect x="10" y="2716.1785545583375" width="2.830188679245283" height="1.9862488846904398" fill="lightgrey"/><rect x="10" y="2293.5075841074895" width="1.4150943396226414" height="1.9862488846904398" fill="lightgrey"/><rect x="10" y="3999.750695428542" width="58.72641509433963" height="1.9862488846904398" fill="lightgrey"/><rect x="10" y="4046.8141500026245" width="37.5" height="1.9862488846904398" fill="lightgrey"/><rect x="10" y="4234.682202277857" width="137.97169811320754" height="1.9862488846904398" fill="lightgrey"/><rect x="10" y="4328.551934078622" width="106.1320754716981" height="1.9862488846904398" fill="lightgrey"/><rect x="10" y="4845.2212250039365" width="236.32075471698113" height="1.9862488846904398" fill="lightgrey"/><rect x="10" y="3624.0145908780773" width="6.367924528301886" height="1.9862488846904398" fill="lightgrey"/><rect x="10" y="4375.486799979006" width="87.02830188679246" height="1.9862488846904398" fill="lightgrey"/><rect x="10" y="4422.550254553089" width="210.8490566037736" height="1.9862488846904398" fill="lightgrey"/><rect x="10" y="4657.353172728704" width="189.62264150943395" height="1.9862488846904398" fill="lightgrey"/><rect x="10" y="4798.286359103553" width="319.10377358490564" height="1.9862488846904398" fill="lightgrey"/><rect x="10" y="4281.61706817824" width="159.19811320754718" height="1.9862488846904398" fill="lightgrey"/><rect x="10" y="4892.15609090432" width="281.60377358490564" height="1.9862488846904398" fill="lightgrey"/><rect x="10" y="3295.3419409016956" width="8.49056603773585" height="1.9862488846904398" fill="lightgrey"/><rect x="10" y="4469.485120453472" width="190.33018867924528" height="1.9862488846904398" fill="lightgrey"/><rect x="10" y="4610.418306828321" width="203.77358490566036" height="1.9862488846904398" fill="lightgrey"/><rect x="10" y="3671.07804545216" width="7.783018867924529" height="1.9862488846904398" fill="lightgrey"/><rect x="10" y="4516.419986353855" width="167.68867924528303" height="1.9862488846904398" fill="lightgrey"/><rect x="10" y="4563.354852254239" width="205.89622641509436" height="1.9862488846904398" fill="lightgrey"/><rect x="10" y="4704.288038629087" width="150" height="1.9862488846904398" fill="lightgrey"/><rect x="10" y="2825.607515876765" width="2.830188679245283" height="1.9862488846904398" fill="lightgrey"/><rect x="10" y="3342.276806802078" width="3.537735849056604" height="1.9862488846904398" fill="lightgrey"/><rect x="10" y="3577.079724977694" width="4.245283018867925" height="1.9862488846904398" fill="lightgrey"/><rect x="10" y="4187.618747703774" width="94.81132075471697" height="1.9862488846904398" fill="lightgrey"/><rect x="10" y="4751.222904529471" width="196.69811320754718" height="1.9862488846904398" fill="lightgrey"/><rect x="10" y="3858.946097727392" width="2.830188679245283" height="1.9862488846904398" fill="lightgrey"/><rect x="10" y="3952.8158295281582" width="12.028301886792452" height="1.9862488846904398" fill="lightgrey"/><rect x="10" y="4093.749015903007" width="109.66981132075472" height="1.9862488846904398" fill="lightgrey"/><rect x="10" y="4140.68388180339" width="84.90566037735849" height="1.9862488846904398" fill="lightgrey"/><rect x="10" y="2778.6726499763818" width="3.537735849056604" height="1.9862488846904398" fill="lightgrey"/><rect x="10" y="3107.473888626463" width="2.830188679245283" height="1.9862488846904398" fill="lightgrey"/><rect x="10" y="3718.0129113525427" width="5.660377358490566" height="1.9862488846904398" fill="lightgrey"/><rect x="10" y="3201.3436204272293" width="8.49056603773585" height="1.9862488846904398" fill="lightgrey"/><rect x="10" y="3530.1448590773107" width="3.537735849056604" height="1.9862488846904398" fill="lightgrey"/><rect x="10" y="2919.605836351231" width="5.660377358490566" height="1.9862488846904398" fill="lightgrey"/><rect x="10" y="2966.5407022516138" width="5.660377358490566" height="1.9862488846904398" fill="lightgrey"/><rect x="10" y="3248.278486327612" width="7.075471698113208" height="1.9862488846904398" fill="lightgrey"/><rect x="10" y="3811.8826431533093" width="7.075471698113208" height="1.9862488846904398" fill="lightgrey"/><rect x="10" y="3483.2099931769276" width="6.367924528301886" height="1.9862488846904398" fill="lightgrey"/><rect x="10" y="2449.8714113263004" width="3.537735849056604" height="1.9862488846904398" fill="lightgrey"/><rect x="10" y="3436.146538602845" width="3.537735849056604" height="1.9862488846904398" fill="lightgrey"/><rect x="10" y="2215.068493150685" width="2.830188679245283" height="1.9862488846904398" fill="lightgrey"/><rect x="10" y="3905.880963627775" width="9.19811320754717" height="1.9862488846904398" fill="lightgrey"/><rect x="10" y="2684.6743295019155" width="4.952830188679245" height="1.9862488846904398" fill="lightgrey"/><rect x="10" y="2637.7394636015324" width="8.49056603773585" height="1.9862488846904398" fill="lightgrey"/><rect x="10" y="3060.41043405238" width="4.952830188679245" height="1.9862488846904398" fill="lightgrey"/><rect x="10" y="3154.408754526846" width="8.49056603773585" height="1.9862488846904398" fill="lightgrey"/><rect x="10" y="2731.7377840759987" width="1.4150943396226414" height="1.9862488846904398" fill="lightgrey"/><rect x="10" y="2496.8062772266835" width="1.4150943396226414" height="1.9862488846904398" fill="lightgrey"/><rect x="10" y="2543.8697318007667" width="2.1226415094339623" height="1.9862488846904398" fill="lightgrey"/><rect x="10" y="2168.1336272503017" width="2.1226415094339623" height="1.9862488846904398" fill="lightgrey"/><rect x="10" y="2590.8045977011493" width="1.4150943396226414" height="1.9862488846904398" fill="lightgrey"/><rect x="10" y="1698.3992022253715" width="0.7075471698113207" height="1.9862488846904398" fill="lightgrey"/><rect x="10" y="3764.947777252926" width="4.952830188679245" height="1.9862488846904398" fill="lightgrey"/><rect x="10" y="3013.475568151997" width="2.830188679245283" height="1.9862488846904398" fill="lightgrey"/><rect x="10" y="2872.5423817771475" width="0.7075471698113207" height="1.9862488846904398" fill="lightgrey"/><rect x="10" y="2356.001679525534" width="0.7075471698113207" height="1.9862488846904398" fill="lightgrey"/><rect x="10" y="3440.1327874875346" width="9.90566037735849" height="1.9862488846904398" fill="lightgrey"/><rect x="10" y="4003.736944313231" width="43.867924528301884" height="1.9862488846904398" fill="lightgrey"/><rect x="10" y="4050.8003988873147" width="51.65094339622641" height="1.9862488846904398" fill="lightgrey"/><rect x="10" y="4097.735264787698" width="55.18867924528301" height="1.9862488846904398" fill="lightgrey"/><rect x="10" y="4849.207473888627" width="252.59433962264148" height="1.9862488846904398" fill="lightgrey"/><rect x="10" y="4520.406235238545" width="176.8867924528302" height="1.9862488846904398" fill="lightgrey"/><rect x="10" y="4614.404555713011" width="266.0377358490566" height="1.9862488846904398" fill="lightgrey"/><rect x="10" y="4708.274287513777" width="163.44339622641508" height="1.9862488846904398" fill="lightgrey"/><rect x="10" y="4755.209153414161" width="188.91509433962267" height="1.9862488846904398" fill="lightgrey"/><rect x="10" y="4896.142339789009" width="370.0471698113207" height="1.9862488846904398" fill="lightgrey"/><rect x="10" y="4144.6701306880805" width="71.4622641509434" height="1.9862488846904398" fill="lightgrey"/><rect x="10" y="4191.604996588463" width="87.02830188679246" height="1.9862488846904398" fill="lightgrey"/><rect x="10" y="4802.272607988243" width="305.66037735849056" height="1.9862488846904398" fill="lightgrey"/><rect x="10" y="4238.668451162547" width="111.79245283018867" height="1.9862488846904398" fill="lightgrey"/><rect x="10" y="4285.60331706293" width="121.69811320754718" height="1.9862488846904398" fill="lightgrey"/><rect x="10" y="4426.536503437779" width="201.6509433962264" height="1.9862488846904398" fill="lightgrey"/><rect x="10" y="4473.471369338162" width="176.8867924528302" height="1.9862488846904398" fill="lightgrey"/><rect x="10" y="4567.341101138928" width="167.68867924528303" height="1.9862488846904398" fill="lightgrey"/><rect x="10" y="4661.339421613394" width="175.47169811320754" height="1.9862488846904398" fill="lightgrey"/><rect x="10" y="2688.6605783866057" width="9.90566037735849" height="1.9862488846904398" fill="lightgrey"/><rect x="10" y="2970.5269511363044" width="5.660377358490566" height="1.9862488846904398" fill="lightgrey"/><rect x="10" y="3064.39668293707" width="9.90566037735849" height="1.9862488846904398" fill="lightgrey"/><rect x="10" y="3252.2647352123026" width="9.19811320754717" height="1.9862488846904398" fill="lightgrey"/><rect x="10" y="3346.263055686769" width="6.367924528301886" height="1.9862488846904398" fill="lightgrey"/><rect x="10" y="4332.5381829633125" width="101.17924528301887" height="1.9862488846904398" fill="lightgrey"/><rect x="10" y="3205.3298693119195" width="8.49056603773585" height="1.9862488846904398" fill="lightgrey"/><rect x="10" y="4379.473048863696" width="109.66981132075472" height="1.9862488846904398" fill="lightgrey"/><rect x="10" y="3581.065973862384" width="6.367924528301886" height="1.9862488846904398" fill="lightgrey"/><rect x="10" y="3768.934026137616" width="4.245283018867925" height="1.9862488846904398" fill="lightgrey"/><rect x="10" y="2453.8576602109906" width="0.7075471698113207" height="1.9862488846904398" fill="lightgrey"/><rect x="10" y="2500.7925261113737" width="3.537735849056604" height="1.9862488846904398" fill="lightgrey"/><rect x="10" y="3956.8020784128485" width="14.858490566037737" height="1.9862488846904398" fill="lightgrey"/><rect x="10" y="2594.790846585839" width="3.537735849056604" height="1.9862488846904398" fill="lightgrey"/><rect x="10" y="3299.3281897863853" width="3.537735849056604" height="1.9862488846904398" fill="lightgrey"/><rect x="10" y="3815.868892037999" width="9.19811320754717" height="1.9862488846904398" fill="lightgrey"/><rect x="10" y="3862.9323466120823" width="13.443396226415093" height="1.9862488846904398" fill="lightgrey"/><rect x="10" y="2312.9244738361413" width="2.1226415094339623" height="1.9862488846904398" fill="lightgrey"/><rect x="10" y="3111.460137511153" width="4.952830188679245" height="1.9862488846904398" fill="lightgrey"/><rect x="10" y="3721.999160237233" width="4.952830188679245" height="1.9862488846904398" fill="lightgrey"/><rect x="10" y="3487.1962420616173" width="4.245283018867925" height="1.9862488846904398" fill="lightgrey"/><rect x="10" y="3017.461817036687" width="8.49056603773585" height="1.9862488846904398" fill="lightgrey"/><rect x="10" y="2735.7240329606884" width="7.075471698113208" height="1.9862488846904398" fill="lightgrey"/><rect x="10" y="3675.06429433685" width="5.660377358490566" height="1.9862488846904398" fill="lightgrey"/><rect x="10" y="3909.8672125124654" width="7.783018867924529" height="1.9862488846904398" fill="lightgrey"/><rect x="10" y="2829.593764761455" width="2.1226415094339623" height="1.9862488846904398" fill="lightgrey"/><rect x="10" y="3393.1979215871515" width="1.4150943396226414" height="1.9862488846904398" fill="lightgrey"/><rect x="10" y="3158.3950034115364" width="7.783018867924529" height="1.9862488846904398" fill="lightgrey"/><rect x="10" y="2641.7257124862226" width="5.660377358490566" height="1.9862488846904398" fill="lightgrey"/><rect x="10" y="2782.658898861072" width="1.4150943396226414" height="1.9862488846904398" fill="lightgrey"/><rect x="10" y="1890.2535033852937" width="1.4150943396226414" height="1.9862488846904398" fill="lightgrey"/><rect x="10" y="3534.131107962001" width="7.075471698113208" height="1.9862488846904398" fill="lightgrey"/><rect x="10" y="1608.515719309295" width="0.7075471698113207" height="1.9862488846904398" fill="lightgrey"/><rect x="10" y="2031.1866897601428" width="4.245283018867925" height="1.9862488846904398" fill="lightgrey"/><rect x="10" y="3628.000839762767" width="8.49056603773585" height="1.9862488846904398" fill="lightgrey"/><rect x="10" y="1984.2518238597595" width="1.4150943396226414" height="1.9862488846904398" fill="lightgrey"/><rect x="10" y="1749.3203170104446" width="1.4150943396226414" height="1.9862488846904398" fill="lightgrey"/><rect x="10" y="2876.528630661838" width="6.367924528301886" height="1.9862488846904398" fill="lightgrey"/><rect x="10" y="1843.3186374849106" width="0.7075471698113207" height="1.9862488846904398" fill="lightgrey"/><rect x="10" y="2547.8559806854564" width="2.830188679245283" height="1.9862488846904398" fill="lightgrey"/><rect x="10" y="2923.592085235921" width="1.4150943396226414" height="1.9862488846904398" fill="lightgrey"/><rect x="10" y="1091.8464283839814" width="0.7075471698113207" height="1.9862488846904398" fill="lightgrey"/><rect x="10" y="2406.9227943106075" width="1.4150943396226414" height="1.9862488846904398" fill="lightgrey"/><rect x="10" y="2359.987928410224" width="0.7075471698113207" height="1.9862488846904398" fill="lightgrey"/><rect x="10" y="2265.989607935758" width="1.4150943396226414" height="1.9862488846904398" fill="lightgrey"/><rect x="10" y="2078.1215556605257" width="0.7075471698113207" height="1.9862488846904398" fill="lightgrey"/><rect x="10" y="1561.4522647352123" width="0.7075471698113207" height="1.9862488846904398" fill="lightgrey"/><rect x="10" y="4007.5946045242217" width="50.23584905660377" height="1.9862488846904398" fill="lightgrey"/><rect x="10" y="4148.527790899071" width="60.84905660377359" height="1.9862488846904398" fill="lightgrey"/><rect x="10" y="4430.394163648769" width="206.60377358490564" height="1.9862488846904398" fill="lightgrey"/><rect x="10" y="4524.263895449536" width="152.83018867924528" height="1.9862488846904398" fill="lightgrey"/><rect x="10" y="4665.197081824384" width="199.52830188679246" height="1.9862488846904398" fill="lightgrey"/><rect x="10" y="4759.066813625151" width="180.42452830188677" height="1.9862488846904398" fill="lightgrey"/><rect x="10" y="4101.592924998688" width="61.55660377358491" height="1.9862488846904398" fill="lightgrey"/><rect x="10" y="4195.462656799454" width="106.1320754716981" height="1.9862488846904398" fill="lightgrey"/><rect x="10" y="4383.330709074687" width="115.33018867924528" height="1.9862488846904398" fill="lightgrey"/><rect x="10" y="4477.329029549152" width="159.90566037735852" height="1.9862488846904398" fill="lightgrey"/><rect x="10" y="4712.131947724768" width="193.16037735849056" height="1.9862488846904398" fill="lightgrey"/><rect x="10" y="4806.130268199234" width="293.6320754716981" height="1.9862488846904398" fill="lightgrey"/><rect x="10" y="4618.262215924001" width="192.45283018867923" height="1.9862488846904398" fill="lightgrey"/><rect x="10" y="3162.2526636225266" width="15.566037735849058" height="1.9862488846904398" fill="lightgrey"/><rect x="10" y="3913.724872723456" width="15.566037735849058" height="1.9862488846904398" fill="lightgrey"/><rect x="10" y="4289.46097727392" width="128.77358490566039" height="1.9862488846904398" fill="lightgrey"/><rect x="10" y="4571.198761349919" width="167.68867924528303" height="1.9862488846904398" fill="lightgrey"/><rect x="10" y="4853.065134099617" width="319.10377358490564" height="1.9862488846904398" fill="lightgrey"/><rect x="10" y="3631.8584999737573" width="10.61320754716981" height="1.9862488846904398" fill="lightgrey"/><rect x="10" y="4242.526111373537" width="97.64150943396226" height="1.9862488846904398" fill="lightgrey"/><rect x="10" y="4336.395843174303" width="135.8490566037736" height="1.9862488846904398" fill="lightgrey"/><rect x="10" y="4900" width="81.3679245283019" height="1.9862488846904398" fill="lightgrey"/><rect x="10" y="2269.847268146749" width="2.830188679245283" height="1.9862488846904398" fill="lightgrey"/><rect x="10" y="2692.5182385975963" width="7.075471698113208" height="1.9862488846904398" fill="lightgrey"/><rect x="10" y="3068.254343148061" width="7.783018867924529" height="1.9862488846904398" fill="lightgrey"/><rect x="10" y="3443.9904476985253" width="9.19811320754717" height="1.9862488846904398" fill="lightgrey"/><rect x="10" y="3960.659738623839" width="16.9811320754717" height="1.9862488846904398" fill="lightgrey"/><rect x="10" y="3350.1207158977586" width="4.952830188679245" height="1.9862488846904398" fill="lightgrey"/><rect x="10" y="3209.18752952291" width="8.49056603773585" height="1.9862488846904398" fill="lightgrey"/><rect x="10" y="2833.4514249724457" width="7.075471698113208" height="1.9862488846904398" fill="lightgrey"/><rect x="10" y="2974.384611347294" width="7.783018867924529" height="1.9862488846904398" fill="lightgrey"/><rect x="10" y="3303.1858499973755" width="14.150943396226417" height="1.9862488846904398" fill="lightgrey"/><rect x="10" y="2645.583372697213" width="7.075471698113208" height="1.9862488846904398" fill="lightgrey"/><rect x="10" y="3537.988768172991" width="10.61320754716981" height="1.9862488846904398" fill="lightgrey"/><rect x="10" y="3021.3194772476777" width="9.90566037735849" height="1.9862488846904398" fill="lightgrey"/><rect x="10" y="4054.6580590983044" width="45.990566037735846" height="1.9862488846904398" fill="lightgrey"/><rect x="10" y="3819.7265522489897" width="12.735849056603772" height="1.9862488846904398" fill="lightgrey"/><rect x="10" y="3256.122395423293" width="9.19811320754717" height="1.9862488846904398" fill="lightgrey"/><rect x="10" y="3772.7916863486066" width="10.61320754716981" height="1.9862488846904398" fill="lightgrey"/><rect x="10" y="3725.856820448223" width="14.150943396226417" height="1.9862488846904398" fill="lightgrey"/><rect x="10" y="3866.7900068230724" width="12.028301886792452" height="1.9862488846904398" fill="lightgrey"/><rect x="10" y="2410.7804545215977" width="1.4150943396226414" height="1.9862488846904398" fill="lightgrey"/><rect x="10" y="2551.7136408964466" width="4.952830188679245" height="1.9862488846904398" fill="lightgrey"/><rect x="10" y="2927.449745446911" width="3.537735849056604" height="1.9862488846904398" fill="lightgrey"/><rect x="10" y="2880.3862908728283" width="4.952830188679245" height="1.9862488846904398" fill="lightgrey"/><rect x="10" y="3115.3177977221435" width="9.90566037735849" height="1.9862488846904398" fill="lightgrey"/><rect x="10" y="3584.9236340733746" width="7.075471698113208" height="1.9862488846904398" fill="lightgrey"/><rect x="10" y="2504.650186322364" width="3.537735849056604" height="1.9862488846904398" fill="lightgrey"/><rect x="10" y="2128.9140817718994" width="1.4150943396226414" height="1.9862488846904398" fill="lightgrey"/><rect x="10" y="2081.9792158715163" width="1.4150943396226414" height="1.9862488846904398" fill="lightgrey"/><rect x="10" y="3397.055581798142" width="7.075471698113208" height="1.9862488846904398" fill="lightgrey"/><rect x="10" y="2316.7821340471314" width="2.830188679245283" height="1.9862488846904398" fill="lightgrey"/><rect x="10" y="2598.6485067968297" width="6.367924528301886" height="1.9862488846904398" fill="lightgrey"/><rect x="10" y="2786.516559072062" width="4.245283018867925" height="1.9862488846904398" fill="lightgrey"/><rect x="10" y="1847.176297695901" width="1.4150943396226414" height="1.9862488846904398" fill="lightgrey"/><rect x="10" y="3678.92195454784" width="7.075471698113208" height="1.9862488846904398" fill="lightgrey"/><rect x="10" y="2739.581693171679" width="8.49056603773585" height="1.9862488846904398" fill="lightgrey"/><rect x="10" y="2175.9775363459826" width="2.1226415094339623" height="1.9862488846904398" fill="lightgrey"/><rect x="10" y="2222.912402246365" width="1.4150943396226414" height="1.9862488846904398" fill="lightgrey"/><rect x="10" y="3491.053902272608" width="7.783018867924529" height="1.9862488846904398" fill="lightgrey"/><rect x="10" y="2363.8455886212146" width="1.4150943396226414" height="1.9862488846904398" fill="lightgrey"/><rect x="10" y="1800.2414317955177" width="0.7075471698113207" height="1.9862488846904398" fill="lightgrey"/><rect x="10" y="1988.10948407075" width="0.7075471698113207" height="1.9862488846904398" fill="lightgrey"/><rect x="10" y="2457.715320421981" width="2.830188679245283" height="1.9862488846904398" fill="lightgrey"/><rect x="10" y="2039.0305988558232" width="4.952830188679245" height="1.9862488846904398" fill="lightgrey"/><rect x="10" y="2085.9654647562065" width="13.443396226415093" height="1.9862488846904398" fill="lightgrey"/><rect x="10" y="2696.504487482286" width="33.9622641509434" height="1.9862488846904398" fill="lightgrey"/><rect x="10" y="3588.9098829580644" width="26.179245283018865" height="1.9862488846904398" fill="lightgrey"/><rect x="10" y="4011.580853408912" width="89.85849056603774" height="1.9862488846904398" fill="lightgrey"/><rect x="10" y="4199.448905684144" width="154.95283018867923" height="1.9862488846904398" fill="lightgrey"/><rect x="10" y="4622.248464808691" width="284.4339622641509" height="1.9862488846904398" fill="lightgrey"/><rect x="10" y="4810.116517083924" width="455.66037735849056" height="1.9862488846904398" fill="lightgrey"/><rect x="10" y="4857.051382984307" width="366.5094339622641" height="1.9862488846904398" fill="lightgrey"/><rect x="10" y="4058.6443079829946" width="67.9245283018868" height="1.9862488846904398" fill="lightgrey"/><rect x="10" y="3447.9766965832155" width="21.22641509433962" height="1.9862488846904398" fill="lightgrey"/><rect x="10" y="3541.9750170576813" width="36.79245283018868" height="1.9862488846904398" fill="lightgrey"/><rect x="10" y="3729.8430693329133" width="30.424528301886795" height="1.9862488846904398" fill="lightgrey"/><rect x="10" y="3870.7762557077626" width="33.25471698113208" height="1.9862488846904398" fill="lightgrey"/><rect x="10" y="4434.380412533459" width="214.3867924528302" height="1.9862488846904398" fill="lightgrey"/><rect x="10" y="4481.315278433843" width="225.70754716981133" height="1.9862488846904398" fill="lightgrey"/><rect x="10" y="4528.250144334226" width="170.5188679245283" height="1.9862488846904398" fill="lightgrey"/><rect x="10" y="4669.183330709075" width="224.29245283018867" height="1.9862488846904398" fill="lightgrey"/><rect x="10" y="4716.118196609458" width="203.77358490566036" height="1.9862488846904398" fill="lightgrey"/><rect x="10" y="4105.579173883378" width="101.88679245283018" height="1.9862488846904398" fill="lightgrey"/><rect x="10" y="2743.5679420563692" width="45.283018867924525" height="1.9862488846904398" fill="lightgrey"/><rect x="10" y="3025.3057261323675" width="42.45283018867924" height="1.9862488846904398" fill="lightgrey"/><rect x="10" y="3072.2405920327506" width="55.89622641509433" height="1.9862488846904398" fill="lightgrey"/><rect x="10" y="3119.3040466068337" width="58.72641509433963" height="1.9862488846904398" fill="lightgrey"/><rect x="10" y="3401.041830682832" width="35.37735849056604" height="1.9862488846904398" fill="lightgrey"/><rect x="10" y="4575.185010234609" width="236.32075471698113" height="1.9862488846904398" fill="lightgrey"/><rect x="10" y="2414.766703406288" width="7.783018867924529" height="1.9862488846904398" fill="lightgrey"/><rect x="10" y="2931.4359943316017" width="31.132075471698116" height="1.9862488846904398" fill="lightgrey"/><rect x="10" y="2978.3708602319844" width="30.424528301886795" height="1.9862488846904398" fill="lightgrey"/><rect x="10" y="3354.106964782449" width="28.301886792452834" height="1.9862488846904398" fill="lightgrey"/><rect x="10" y="3495.040151157298" width="29.009433962264154" height="1.9862488846904398" fill="lightgrey"/><rect x="10" y="3776.7779352332964" width="26.886792452830186" height="1.9862488846904398" fill="lightgrey"/><rect x="10" y="4152.51403978376" width="111.79245283018867" height="1.9862488846904398" fill="lightgrey"/><rect x="10" y="4246.512360258227" width="149.29245283018867" height="1.9862488846904398" fill="lightgrey"/><rect x="10" y="4293.44722615861" width="165.56603773584908" height="1.9862488846904398" fill="lightgrey"/><rect x="10" y="4340.382092058993" width="177.59433962264148" height="1.9862488846904398" fill="lightgrey"/><rect x="10" y="4763.053062509841" width="240.56603773584908" height="1.9862488846904398" fill="lightgrey"/><rect x="10" y="1287.5583897548943" width="0.7075471698113207" height="1.9862488846904398" fill="lightgrey"/><rect x="10" y="3166.238912507217" width="40.33018867924528" height="1.9862488846904398" fill="lightgrey"/><rect x="10" y="1898.097412480974" width="8.49056603773585" height="1.9862488846904398" fill="lightgrey"/><rect x="10" y="2132.9003306565896" width="10.61320754716981" height="1.9862488846904398" fill="lightgrey"/><rect x="10" y="2367.831837505905" width="15.566037735849058" height="1.9862488846904398" fill="lightgrey"/><rect x="10" y="2508.6364352070536" width="19.10377358490566" height="1.9862488846904398" fill="lightgrey"/><rect x="10" y="2602.63475568152" width="31.132075471698116" height="1.9862488846904398" fill="lightgrey"/><rect x="10" y="2649.569621581903" width="38.20754716981132" height="1.9862488846904398" fill="lightgrey"/><rect x="10" y="2837.4376738571355" width="23.349056603773583" height="1.9862488846904398" fill="lightgrey"/><rect x="10" y="3213.1737784076" width="44.575471698113205" height="1.9862488846904398" fill="lightgrey"/><rect x="10" y="3964.6459875085284" width="43.160377358490564" height="1.9862488846904398" fill="lightgrey"/><rect x="10" y="4387.316957959377" width="158.49056603773585" height="1.9862488846904398" fill="lightgrey"/><rect x="10" y="1992.09573295544" width="9.90566037735849" height="1.9862488846904398" fill="lightgrey"/><rect x="10" y="3917.7111216081457" width="45.283018867924525" height="1.9862488846904398" fill="lightgrey"/><rect x="10" y="2226.8986511310554" width="12.028301886792452" height="1.9862488846904398" fill="lightgrey"/><rect x="10" y="2273.8335170314385" width="12.735849056603772" height="1.9862488846904398" fill="lightgrey"/><rect x="10" y="3307.172098882066" width="35.37735849056604" height="1.9862488846904398" fill="lightgrey"/><rect x="10" y="1804.2276806802079" width="1.4150943396226414" height="1.9862488846904398" fill="lightgrey"/><rect x="10" y="2790.5028079567523" width="25.471698113207545" height="1.9862488846904398" fill="lightgrey"/><rect x="10" y="2884.372539757518" width="17.68867924528302" height="1.9862488846904398" fill="lightgrey"/><rect x="10" y="3260.1086443079835" width="31.132075471698116" height="1.9862488846904398" fill="lightgrey"/><rect x="10" y="2179.9637852306723" width="13.443396226415093" height="1.9862488846904398" fill="lightgrey"/><rect x="10" y="2461.701569306671" width="12.735849056603772" height="1.9862488846904398" fill="lightgrey"/><rect x="10" y="3823.71280113368" width="28.301886792452834" height="1.9862488846904398" fill="lightgrey"/><rect x="10" y="1757.164226106125" width="7.075471698113208" height="1.9862488846904398" fill="lightgrey"/><rect x="10" y="3635.8447488584475" width="24.056603773584904" height="1.9862488846904398" fill="lightgrey"/><rect x="10" y="3682.90820343253" width="29.009433962264154" height="1.9862488846904398" fill="lightgrey"/><rect x="10" y="2555.6998897811372" width="15.566037735849058" height="1.9862488846904398" fill="lightgrey"/><rect x="10" y="2320.768382931822" width="9.90566037735849" height="1.9862488846904398" fill="lightgrey"/><rect x="10" y="1945.0322783813572" width="4.245283018867925" height="1.9862488846904398" fill="lightgrey"/><rect x="10" y="1663.2944943053587" width="2.1226415094339623" height="1.9862488846904398" fill="lightgrey"/><rect x="10" y="1616.3596284049756" width="1.4150943396226414" height="1.9862488846904398" fill="lightgrey"/><rect x="10" y="1005.692017005196" width="0.7075471698113207" height="1.9862488846904398" fill="lightgrey"/><rect x="10" y="1475.4264420301265" width="0.7075471698113207" height="1.9862488846904398" fill="lightgrey"/><rect x="10" y="19.416889728651654" width="0.7075471698113207" height="1.9862488846904398" fill="lightgrey"/><rect x="10" y="1569.2961738308927" width="1.4150943396226414" height="1.9862488846904398" fill="lightgrey"/><rect x="10" y="1851.162546580591" width="1.4150943396226414" height="1.9862488846904398" fill="lightgrey"/><rect x="10" y="1710.2293602057418" width="1.4150943396226414" height="1.9862488846904398" fill="lightgrey"/><rect x="10" y="1381.4281215556605" width="1.4150943396226414" height="1.9862488846904398" fill="lightgrey"/><rect x="10" y="489.15131475358214" width="0.7075471698113207" height="1.9862488846904398" fill="lightgrey"/><rect x="10" y="958.7571511048129" width="0.7075471698113207" height="1.9862488846904398" fill="lightgrey"/><rect x="10" y="1522.3613079305096" width="0.7075471698113207" height="1.9862488846904398" fill="lightgrey"/><rect x="10" y="1761.0218863171156" width="12.028301886792452" height="1.9862488846904398" fill="lightgrey"/><rect x="10" y="4015.438513619902" width="75" height="1.9862488846904398" fill="lightgrey"/><rect x="10" y="4203.306565895135" width="168.39622641509436" height="1.9862488846904398" fill="lightgrey"/><rect x="10" y="4250.370020469218" width="210.8490566037736" height="1.9862488846904398" fill="lightgrey"/><rect x="10" y="4297.3048863696" width="209.43396226415092" height="1.9862488846904398" fill="lightgrey"/><rect x="10" y="4532.107804545216" width="213.67924528301887" height="1.9862488846904398" fill="lightgrey"/><rect x="10" y="4860.909043195297" width="600" height="1.9862488846904398" fill="lightgrey"/><rect x="10" y="2747.4256022673594" width="26.179245283018865" height="1.9862488846904398" fill="lightgrey"/><rect x="10" y="4438.23807274445" width="234.90566037735852" height="1.9862488846904398" fill="lightgrey"/><rect x="10" y="4485.172938644833" width="252.59433962264148" height="1.9862488846904398" fill="lightgrey"/><rect x="10" y="4579.0426704455995" width="268.8679245283019" height="1.9862488846904398" fill="lightgrey"/><rect x="10" y="4626.106125019682" width="319.10377358490564" height="1.9862488846904398" fill="lightgrey"/><rect x="10" y="4673.040990920065" width="337.5" height="1.9862488846904398" fill="lightgrey"/><rect x="10" y="4719.975856820448" width="520.0471698113207" height="1.9862488846904398" fill="lightgrey"/><rect x="10" y="4766.9107227208315" width="481.13207547169816" height="1.9862488846904398" fill="lightgrey"/><rect x="10" y="2982.228520442975" width="25.471698113207545" height="1.9862488846904398" fill="lightgrey"/><rect x="10" y="2512.4940954180443" width="14.150943396226417" height="1.9862488846904398" fill="lightgrey"/><rect x="10" y="2653.4272817928936" width="14.858490566037737" height="1.9862488846904398" fill="lightgrey"/><rect x="10" y="3029.163386343358" width="28.301886792452834" height="1.9862488846904398" fill="lightgrey"/><rect x="10" y="3263.966304518973" width="24.764150943396224" height="1.9862488846904398" fill="lightgrey"/><rect x="10" y="3404.8994908938225" width="19.10377358490566" height="1.9862488846904398" fill="lightgrey"/><rect x="10" y="3639.7024090694376" width="23.349056603773583" height="1.9862488846904398" fill="lightgrey"/><rect x="10" y="3686.765863643521" width="19.81132075471698" height="1.9862488846904398" fill="lightgrey"/><rect x="10" y="4062.5019681939852" width="43.867924528301884" height="1.9862488846904398" fill="lightgrey"/><rect x="10" y="4156.371699994751" width="96.93396226415095" height="1.9862488846904398" fill="lightgrey"/><rect x="10" y="4344.239752269984" width="205.18867924528303" height="1.9862488846904398" fill="lightgrey"/><rect x="10" y="4391.1746181703675" width="218.6320754716981" height="1.9862488846904398" fill="lightgrey"/><rect x="10" y="4813.974177294915" width="579.4811320754717" height="1.9862488846904398" fill="lightgrey"/><rect x="10" y="2935.2936545425914" width="16.27358490566038" height="1.9862488846904398" fill="lightgrey"/><rect x="10" y="3311.029759093056" width="24.056603773584904" height="1.9862488846904398" fill="lightgrey"/><rect x="10" y="3545.832677268672" width="21.933962264150942" height="1.9862488846904398" fill="lightgrey"/><rect x="10" y="2183.8214454416625" width="4.245283018867925" height="1.9862488846904398" fill="lightgrey"/><rect x="10" y="3451.8343567942056" width="14.150943396226417" height="1.9862488846904398" fill="lightgrey"/><rect x="10" y="3780.635595444287" width="28.301886792452834" height="1.9862488846904398" fill="lightgrey"/><rect x="10" y="4109.436834094368" width="126.65094339622641" height="1.9862488846904398" fill="lightgrey"/><rect x="10" y="2794.360468167743" width="23.349056603773583" height="1.9862488846904398" fill="lightgrey"/><rect x="10" y="3874.6339159187532" width="19.81132075471698" height="1.9862488846904398" fill="lightgrey"/><rect x="10" y="2606.4924158925105" width="24.056603773584904" height="1.9862488846904398" fill="lightgrey"/><rect x="10" y="2888.2301999685087" width="13.443396226415093" height="1.9862488846904398" fill="lightgrey"/><rect x="10" y="3170.0965727182074" width="32.54716981132076" height="1.9862488846904398" fill="lightgrey"/><rect x="10" y="3217.03143861859" width="48.11320754716981" height="1.9862488846904398" fill="lightgrey"/><rect x="10" y="3827.57046134467" width="21.22641509433962" height="1.9862488846904398" fill="lightgrey"/><rect x="10" y="3921.5687818191363" width="26.179245283018865" height="1.9862488846904398" fill="lightgrey"/><rect x="10" y="3968.503647719519" width="29.009433962264154" height="1.9862488846904398" fill="lightgrey"/><rect x="10" y="3733.700729543904" width="21.22641509433962" height="1.9862488846904398" fill="lightgrey"/><rect x="10" y="2841.2953340681256" width="12.735849056603772" height="1.9862488846904398" fill="lightgrey"/><rect x="10" y="3123.161706817824" width="35.37735849056604" height="1.9862488846904398" fill="lightgrey"/><rect x="10" y="3076.098252243741" width="30.424528301886795" height="1.9862488846904398" fill="lightgrey"/><rect x="10" y="2371.689497716895" width="5.660377358490566" height="1.9862488846904398" fill="lightgrey"/><rect x="10" y="2324.6260431428123" width="6.367924528301886" height="1.9862488846904398" fill="lightgrey"/><rect x="10" y="1667.1521545163491" width="1.4150943396226414" height="1.9862488846904398" fill="lightgrey"/><rect x="10" y="3357.9646249934394" width="11.320754716981131" height="1.9862488846904398" fill="lightgrey"/><rect x="10" y="3592.7675431690545" width="14.150943396226417" height="1.9862488846904398" fill="lightgrey"/><rect x="10" y="1526.2189681415" width="0.7075471698113207" height="1.9862488846904398" fill="lightgrey"/><rect x="10" y="3498.897811368289" width="16.27358490566038" height="1.9862488846904398" fill="lightgrey"/><rect x="10" y="2418.624363617278" width="4.952830188679245" height="1.9862488846904398" fill="lightgrey"/><rect x="10" y="2559.557549992127" width="10.61320754716981" height="1.9862488846904398" fill="lightgrey"/><rect x="10" y="2465.559229517661" width="9.19811320754717" height="1.9862488846904398" fill="lightgrey"/><rect x="10" y="2700.3621476932767" width="9.90566037735849" height="1.9862488846904398" fill="lightgrey"/><rect x="10" y="1385.285781766651" width="0.7075471698113207" height="1.9862488846904398" fill="lightgrey"/><rect x="10" y="1948.8899385923478" width="3.537735849056604" height="1.9862488846904398" fill="lightgrey"/><rect x="10" y="2042.8882590668136" width="4.245283018867925" height="1.9862488846904398" fill="lightgrey"/><rect x="10" y="2230.756311342046" width="9.90566037735849" height="1.9862488846904398" fill="lightgrey"/><rect x="10" y="1995.9533931664305" width="10.61320754716981" height="1.9862488846904398" fill="lightgrey"/><rect x="10" y="2277.6911772424287" width="3.537735849056604" height="1.9862488846904398" fill="lightgrey"/><rect x="10" y="1855.0202067915814" width="2.1226415094339623" height="1.9862488846904398" fill="lightgrey"/><rect x="10" y="2089.8231249671967" width="6.367924528301886" height="1.9862488846904398" fill="lightgrey"/><rect x="10" y="1901.9550726919645" width="4.245283018867925" height="1.9862488846904398" fill="lightgrey"/><rect x="10" y="1620.217288615966" width="1.4150943396226414" height="1.9862488846904398" fill="lightgrey"/><rect x="10" y="1714.0870204167322" width="0.7075471698113207" height="1.9862488846904398" fill="lightgrey"/><rect x="10" y="915.6799454154202" width="0.7075471698113207" height="1.9862488846904398" fill="lightgrey"/><rect x="10" y="2136.75799086758" width="2.1226415094339623" height="1.9862488846904398" fill="lightgrey"/><rect x="10" y="1808.0853408911983" width="0.7075471698113207" height="1.9862488846904398" fill="lightgrey"/><rect x="10" y="2187.8076943263527" width="1.4150943396226414" height="1.9862488846904398" fill="lightgrey"/><rect x="10" y="1671.138403401039" width="1.4150943396226414" height="1.9862488846904398" fill="lightgrey"/><rect x="10" y="2019.6137091271714" width="1.4150943396226414" height="1.9862488846904398" fill="lightgrey"/><rect x="10" y="3992.16396368026" width="48.11320754716981" height="1.9862488846904398" fill="lightgrey"/><rect x="10" y="4039.0988295806433" width="27.594339622641506" height="1.9862488846904398" fill="lightgrey"/><rect x="10" y="4226.966881855876" width="130.18867924528303" height="1.9862488846904398" fill="lightgrey"/><rect x="10" y="4508.8332546055735" width="124.52830188679246" height="1.9862488846904398" fill="lightgrey"/><rect x="10" y="4743.636172781189" width="189.62264150943395" height="1.9862488846904398" fill="lightgrey"/><rect x="10" y="4837.634493255655" width="227.83018867924528" height="1.9862488846904398" fill="lightgrey"/><rect x="10" y="4884.569359156038" width="423.11320754716985" height="1.9862488846904398" fill="lightgrey"/><rect x="10" y="4602.702986406341" width="268.16037735849056" height="1.9862488846904398" fill="lightgrey"/><rect x="10" y="4649.766440980423" width="279.4811320754717" height="1.9862488846904398" fill="lightgrey"/><rect x="10" y="4790.571038681573" width="342.4528301886793" height="1.9862488846904398" fill="lightgrey"/><rect x="10" y="4414.834934131109" width="157.07547169811323" height="1.9862488846904398" fill="lightgrey"/><rect x="10" y="4555.768120505957" width="251.17924528301887" height="1.9862488846904398" fill="lightgrey"/><rect x="10" y="4696.701306880806" width="150.70754716981133" height="1.9862488846904398" fill="lightgrey"/><rect x="10" y="3710.426179604262" width="7.075471698113208" height="1.9862488846904398" fill="lightgrey"/><rect x="10" y="2724.0224636540174" width="7.783018867924529" height="1.9862488846904398" fill="lightgrey"/><rect x="10" y="3475.4946727549464" width="4.952830188679245" height="1.9862488846904398" fill="lightgrey"/><rect x="10" y="4180.032015955492" width="82.78301886792454" height="1.9862488846904398" fill="lightgrey"/><rect x="10" y="4274.030336429959" width="137.26415094339623" height="1.9862488846904398" fill="lightgrey"/><rect x="10" y="4320.9652023303415" width="122.40566037735849" height="1.9862488846904398" fill="lightgrey"/><rect x="10" y="4367.900068230725" width="169.81132075471697" height="1.9862488846904398" fill="lightgrey"/><rect x="10" y="4086.1622841547264" width="28.301886792452834" height="1.9862488846904398" fill="lightgrey"/><rect x="10" y="0" width="0.7075471698113207" height="1.9862488846904398" fill="lightgrey"/><rect x="10" y="3005.888836403716" width="6.367924528301886" height="1.9862488846904398" fill="lightgrey"/><rect x="10" y="3287.6266204797143" width="7.783018867924529" height="1.9862488846904398" fill="lightgrey"/><rect x="10" y="4133.0971500551095" width="48.11320754716981" height="1.9862488846904398" fill="lightgrey"/><rect x="10" y="4461.898388705191" width="138.67924528301887" height="1.9862488846904398" fill="lightgrey"/><rect x="10" y="3851.230777305411" width="2.1226415094339623" height="1.9862488846904398" fill="lightgrey"/><rect x="10" y="3898.2942318794944" width="6.367924528301886" height="1.9862488846904398" fill="lightgrey"/><rect x="10" y="3945.229097779877" width="9.90566037735849" height="1.9862488846904398" fill="lightgrey"/><rect x="10" y="1878.6805227523225" width="0.7075471698113207" height="1.9862488846904398" fill="lightgrey"/><rect x="10" y="3616.4278591297957" width="4.245283018867925" height="1.9862488846904398" fill="lightgrey"/><rect x="10" y="3193.756888678948" width="7.783018867924529" height="1.9862488846904398" fill="lightgrey"/><rect x="10" y="3334.6900750537975" width="6.367924528301886" height="1.9862488846904398" fill="lightgrey"/><rect x="10" y="2630.1527318532517" width="2.830188679245283" height="1.9862488846904398" fill="lightgrey"/><rect x="10" y="2677.087597753635" width="0.7075471698113207" height="1.9862488846904398" fill="lightgrey"/><rect x="10" y="3757.361045504645" width="6.367924528301886" height="1.9862488846904398" fill="lightgrey"/><rect x="10" y="3052.8237023040992" width="8.49056603773585" height="1.9862488846904398" fill="lightgrey"/><rect x="10" y="3146.8220227785646" width="7.075471698113208" height="1.9862488846904398" fill="lightgrey"/><rect x="10" y="3522.55812732903" width="5.660377358490566" height="1.9862488846904398" fill="lightgrey"/><rect x="10" y="2864.955650028867" width="1.4150943396226414" height="1.9862488846904398" fill="lightgrey"/><rect x="10" y="1690.8124704770903" width="0.7075471698113207" height="1.9862488846904398" fill="lightgrey"/><rect x="10" y="3804.295911405028" width="3.537735849056604" height="1.9862488846904398" fill="lightgrey"/><rect x="10" y="3663.362725030179" width="6.367924528301886" height="1.9862488846904398" fill="lightgrey"/><rect x="10" y="2818.0207841284837" width="5.660377358490566" height="1.9862488846904398" fill="lightgrey"/><rect x="10" y="2958.9539705033326" width="3.537735849056604" height="1.9862488846904398" fill="lightgrey"/><rect x="10" y="3569.4929932294126" width="4.245283018867925" height="1.9862488846904398" fill="lightgrey"/><rect x="10" y="1925.6153886527054" width="0.7075471698113207" height="1.9862488846904398" fill="lightgrey"/><rect x="10" y="2160.418306828321" width="0.7075471698113207" height="1.9862488846904398" fill="lightgrey"/><rect x="10" y="3381.6249409541806" width="2.1226415094339623" height="1.9862488846904398" fill="lightgrey"/><rect x="10" y="2442.284679578019" width="0.7075471698113207" height="1.9862488846904398" fill="lightgrey"/><rect x="10" y="3240.6917545793312" width="4.952830188679245" height="1.9862488846904398" fill="lightgrey"/><rect x="10" y="1596.8141500026243" width="0.7075471698113207" height="1.9862488846904398" fill="lightgrey"/><rect x="10" y="2395.349813677636" width="1.4150943396226414" height="1.9862488846904398" fill="lightgrey"/><rect x="10" y="3099.758568204482" width="3.537735849056604" height="1.9862488846904398" fill="lightgrey"/><rect x="10" y="2911.89051592925" width="3.537735849056604" height="1.9862488846904398" fill="lightgrey"/><rect x="10" y="2583.217865952868" width="2.1226415094339623" height="1.9862488846904398" fill="lightgrey"/><rect x="10" y="3428.5598068545637" width="2.1226415094339623" height="1.9862488846904398" fill="lightgrey"/><rect x="10" y="2301.3514932031703" width="0.7075471698113207" height="1.9862488846904398" fill="lightgrey"/><rect x="10" y="2771.0859182281" width="2.830188679245283" height="1.9862488846904398" fill="lightgrey"/><rect x="10" y="2536.1544113787854" width="1.4150943396226414" height="1.9862488846904398" fill="lightgrey"/><rect x="10" y="1737.7473363774732" width="0.7075471698113207" height="1.9862488846904398" fill="lightgrey"/><rect x="10" y="2207.481761402404" width="0.7075471698113207" height="1.9862488846904398" fill="lightgrey"/><rect x="10" y="2066.5485750275548" width="0.7075471698113207" height="1.9862488846904398" fill="lightgrey"/><rect x="10" y="2489.2195454784023" width="1.4150943396226414" height="1.9862488846904398" fill="lightgrey"/><rect x="10" y="2348.2863591035534" width="0.7075471698113207" height="1.9862488846904398" fill="lightgrey"/><rect x="10" y="2254.4166273027868" width="0.7075471698113207" height="1.9862488846904398" fill="lightgrey"/><rect x="10" y="2822.0070330131734" width="2.830188679245283" height="1.9862488846904398" fill="lightgrey"/><rect x="10" y="3197.743137563638" width="5.660377358490566" height="1.9862488846904398" fill="lightgrey"/><rect x="10" y="3996.1502125649504" width="38.20754716981132" height="1.9862488846904398" fill="lightgrey"/><rect x="10" y="4043.0850784653335" width="36.79245283018868" height="1.9862488846904398" fill="lightgrey"/><rect x="10" y="4324.951451215032" width="137.26415094339623" height="1.9862488846904398" fill="lightgrey"/><rect x="10" y="4465.88463758988" width="155.66037735849056" height="1.9862488846904398" fill="lightgrey"/><rect x="10" y="4653.752689865113" width="227.83018867924528" height="1.9862488846904398" fill="lightgrey"/><rect x="10" y="4841.620742140346" width="175.47169811320754" height="1.9862488846904398" fill="lightgrey"/><rect x="10" y="4278.016585314648" width="123.11320754716982" height="1.9862488846904398" fill="lightgrey"/><rect x="10" y="4606.68923529103" width="215.80188679245282" height="1.9862488846904398" fill="lightgrey"/><rect x="10" y="4700.687555765497" width="103.30188679245282" height="1.9862488846904398" fill="lightgrey"/><rect x="10" y="4747.622421665879" width="167.68867924528303" height="1.9862488846904398" fill="lightgrey"/><rect x="10" y="4888.555608040729" width="325.4716981132076" height="1.9862488846904398" fill="lightgrey"/><rect x="10" y="4184.018264840182" width="100.47169811320754" height="1.9862488846904398" fill="lightgrey"/><rect x="10" y="4371.886317115415" width="124.52830188679246" height="1.9862488846904398" fill="lightgrey"/><rect x="10" y="4559.754369390647" width="147.87735849056602" height="1.9862488846904398" fill="lightgrey"/><rect x="10" y="3432.546055739254" width="2.1226415094339623" height="1.9862488846904398" fill="lightgrey"/><rect x="10" y="4137.0833989398" width="47.40566037735849" height="1.9862488846904398" fill="lightgrey"/><rect x="10" y="4230.953130740566" width="112.5" height="1.9862488846904398" fill="lightgrey"/><rect x="10" y="4512.819503490264" width="130.89622641509433" height="1.9862488846904398" fill="lightgrey"/><rect x="10" y="4794.557287566262" width="234.19811320754718" height="1.9862488846904398" fill="lightgrey"/><rect x="10" y="3667.348973914869" width="3.537735849056604" height="1.9862488846904398" fill="lightgrey"/><rect x="10" y="2681.073846638325" width="3.537735849056604" height="1.9862488846904398" fill="lightgrey"/><rect x="10" y="2868.941898913557" width="4.952830188679245" height="1.9862488846904398" fill="lightgrey"/><rect x="10" y="4418.821183015798" width="150.70754716981133" height="1.9862488846904398" fill="lightgrey"/><rect x="10" y="3526.5443762137197" width="2.830188679245283" height="1.9862488846904398" fill="lightgrey"/><rect x="10" y="3855.217026190101" width="5.660377358490566" height="1.9862488846904398" fill="lightgrey"/><rect x="10" y="3949.2153466645673" width="5.660377358490566" height="1.9862488846904398" fill="lightgrey"/><rect x="10" y="4090.148533039416" width="26.886792452830186" height="1.9862488846904398" fill="lightgrey"/><rect x="10" y="3902.2804807641837" width="8.49056603773585" height="1.9862488846904398" fill="lightgrey"/><rect x="10" y="2399.3360625623263" width="1.4150943396226414" height="1.9862488846904398" fill="lightgrey"/><rect x="10" y="3244.6780034640215" width="5.660377358490566" height="1.9862488846904398" fill="lightgrey"/><rect x="10" y="2634.1389807379414" width="2.1226415094339623" height="1.9862488846904398" fill="lightgrey"/><rect x="10" y="3103.7448170891726" width="4.952830188679245" height="1.9862488846904398" fill="lightgrey"/><rect x="10" y="3620.414108014486" width="2.1226415094339623" height="1.9862488846904398" fill="lightgrey"/><rect x="10" y="2258.402876187477" width="0.7075471698113207" height="1.9862488846904398" fill="lightgrey"/><rect x="10" y="3573.479242114103" width="3.537735849056604" height="1.9862488846904398" fill="lightgrey"/><rect x="10" y="3761.3472943893353" width="9.90566037735849" height="1.9862488846904398" fill="lightgrey"/><rect x="10" y="3150.8082716632553" width="2.1226415094339623" height="1.9862488846904398" fill="lightgrey"/><rect x="10" y="2070.5348239122445" width="1.4150943396226414" height="1.9862488846904398" fill="lightgrey"/><rect x="10" y="3009.875085288406" width="2.830188679245283" height="1.9862488846904398" fill="lightgrey"/><rect x="10" y="3714.4124284889517" width="5.660377358490566" height="1.9862488846904398" fill="lightgrey"/><rect x="10" y="2915.87676481394" width="0.7075471698113207" height="1.9862488846904398" fill="lightgrey"/><rect x="10" y="2587.2041148375583" width="2.1226415094339623" height="1.9862488846904398" fill="lightgrey"/><rect x="10" y="3338.6763239384873" width="2.830188679245283" height="1.9862488846904398" fill="lightgrey"/><rect x="10" y="2493.2057943630925" width="1.4150943396226414" height="1.9862488846904398" fill="lightgrey"/><rect x="10" y="1929.6016375373958" width="1.4150943396226414" height="1.9862488846904398" fill="lightgrey"/><rect x="10" y="3056.8099511887895" width="2.1226415094339623" height="1.9862488846904398" fill="lightgrey"/><rect x="10" y="3385.6111898388704" width="2.830188679245283" height="1.9862488846904398" fill="lightgrey"/><rect x="10" y="3808.2821602897184" width="4.245283018867925" height="1.9862488846904398" fill="lightgrey"/><rect x="10" y="990.2613761612345" width="0.7075471698113207" height="1.9862488846904398" fill="lightgrey"/><rect x="10" y="2962.940219388023" width="4.245283018867925" height="1.9862488846904398" fill="lightgrey"/><rect x="10" y="1694.7987193617803" width="0.7075471698113207" height="1.9862488846904398" fill="lightgrey"/><rect x="10" y="1976.5365034377787" width="1.4150943396226414" height="1.9862488846904398" fill="lightgrey"/><rect x="10" y="2117.469689812628" width="0.7075471698113207" height="1.9862488846904398" fill="lightgrey"/><rect x="10" y="3291.6128693644046" width="2.1226415094339623" height="1.9862488846904398" fill="lightgrey"/><rect x="10" y="2352.272607988243" width="2.1226415094339623" height="1.9862488846904398" fill="lightgrey"/><rect x="10" y="2446.270928462709" width="0.7075471698113207" height="1.9862488846904398" fill="lightgrey"/><rect x="10" y="3479.480921639637" width="1.4150943396226414" height="1.9862488846904398" fill="lightgrey"/><rect x="10" y="1741.7335852621636" width="0.7075471698113207" height="1.9862488846904398" fill="lightgrey"/><rect x="10" y="2728.008712538708" width="0.7075471698113207" height="1.9862488846904398" fill="lightgrey"/><rect x="10" y="2775.072167112791" width="0.7075471698113207" height="1.9862488846904398" fill="lightgrey"/><rect x="10" y="4176.045767070803" width="111.08490566037736" height="1.9862488846904398" fill="lightgrey"/><rect x="10" y="4504.847005720883" width="149.29245283018867" height="1.9862488846904398" fill="lightgrey"/><rect x="10" y="4645.780192095733" width="191.74528301886795" height="1.9862488846904398" fill="lightgrey"/><rect x="10" y="4457.912139820501" width="170.5188679245283" height="1.9862488846904398" fill="lightgrey"/><rect x="10" y="4692.715057996116" width="156.3679245283019" height="1.9862488846904398" fill="lightgrey"/><rect x="10" y="4880.583110271348" width="459.1981132075472" height="1.9862488846904398" fill="lightgrey"/><rect x="10" y="4316.978953445651" width="115.33018867924528" height="1.9862488846904398" fill="lightgrey"/><rect x="10" y="4363.913819346035" width="125.9433962264151" height="1.9862488846904398" fill="lightgrey"/><rect x="10" y="2250.430378418097" width="1.4150943396226414" height="1.9862488846904398" fill="lightgrey"/><rect x="10" y="4833.648244370965" width="402.59433962264154" height="1.9862488846904398" fill="lightgrey"/><rect x="10" y="3847.244528420721" width="5.660377358490566" height="1.9862488846904398" fill="lightgrey"/><rect x="10" y="4129.110901170419" width="43.160377358490564" height="1.9862488846904398" fill="lightgrey"/><rect x="10" y="4410.8486852464175" width="200.94339622641508" height="1.9862488846904398" fill="lightgrey"/><rect x="10" y="4551.781871621267" width="217.2169811320755" height="1.9862488846904398" fill="lightgrey"/><rect x="10" y="4598.71673752165" width="207.31132075471697" height="1.9862488846904398" fill="lightgrey"/><rect x="10" y="4786.584789796882" width="323.34905660377353" height="1.9862488846904398" fill="lightgrey"/><rect x="10" y="4739.6499238965" width="172.64150943396226" height="1.9862488846904398" fill="lightgrey"/><rect x="10" y="2767.099669343411" width="4.245283018867925" height="1.9862488846904398" fill="lightgrey"/><rect x="10" y="3095.7723193197926" width="9.19811320754717" height="1.9862488846904398" fill="lightgrey"/><rect x="10" y="3236.705505694641" width="8.49056603773585" height="1.9862488846904398" fill="lightgrey"/><rect x="10" y="3330.7038261691073" width="5.660377358490566" height="1.9862488846904398" fill="lightgrey"/><rect x="10" y="4082.176035270036" width="44.575471698113205" height="1.9862488846904398" fill="lightgrey"/><rect x="10" y="4270.044087545269" width="120.99056603773585" height="1.9862488846904398" fill="lightgrey"/><rect x="10" y="2626.1664829685615" width="9.90566037735849" height="1.9862488846904398" fill="lightgrey"/><rect x="10" y="4035.1125806959535" width="30.424528301886795" height="1.9862488846904398" fill="lightgrey"/><rect x="10" y="4222.9806329711855" width="125.23584905660377" height="1.9862488846904398" fill="lightgrey"/><rect x="10" y="3753.374796619955" width="11.320754716981131" height="1.9862488846904398" fill="lightgrey"/><rect x="10" y="3988.1777147955704" width="19.81132075471698" height="1.9862488846904398" fill="lightgrey"/><rect x="10" y="3800.3096625203384" width="6.367924528301886" height="1.9862488846904398" fill="lightgrey"/><rect x="10" y="3189.770639794258" width="4.245283018867925" height="1.9862488846904398" fill="lightgrey"/><rect x="10" y="3941.242848895187" width="9.19811320754717" height="1.9862488846904398" fill="lightgrey"/><rect x="10" y="3283.6403715950246" width="5.660377358490566" height="1.9862488846904398" fill="lightgrey"/><rect x="10" y="3424.5735579698735" width="4.952830188679245" height="1.9862488846904398" fill="lightgrey"/><rect x="10" y="3659.376476145489" width="4.952830188679245" height="1.9862488846904398" fill="lightgrey"/><rect x="10" y="3001.902587519026" width="3.537735849056604" height="1.9862488846904398" fill="lightgrey"/><rect x="10" y="3471.508423870257" width="2.830188679245283" height="1.9862488846904398" fill="lightgrey"/><rect x="10" y="3048.837453419409" width="3.537735849056604" height="1.9862488846904398" fill="lightgrey"/><rect x="10" y="2954.967721618643" width="2.830188679245283" height="1.9862488846904398" fill="lightgrey"/><rect x="10" y="1686.8262215924" width="0.7075471698113207" height="1.9862488846904398" fill="lightgrey"/><rect x="10" y="3706.4399307195717" width="4.245283018867925" height="1.9862488846904398" fill="lightgrey"/><rect x="10" y="2720.036214769328" width="2.1226415094339623" height="1.9862488846904398" fill="lightgrey"/><rect x="10" y="2673.1013488689446" width="2.830188679245283" height="1.9862488846904398" fill="lightgrey"/><rect x="10" y="3142.8357738938753" width="3.537735849056604" height="1.9862488846904398" fill="lightgrey"/><rect x="10" y="3894.3079829948038" width="4.952830188679245" height="1.9862488846904398" fill="lightgrey"/><rect x="10" y="2907.90426704456" width="0.7075471698113207" height="1.9862488846904398" fill="lightgrey"/><rect x="10" y="3612.4416102451055" width="4.952830188679245" height="1.9862488846904398" fill="lightgrey"/><rect x="10" y="2015.6274602424814" width="1.4150943396226414" height="1.9862488846904398" fill="lightgrey"/><rect x="10" y="3565.5067443447224" width="4.245283018867925" height="1.9862488846904398" fill="lightgrey"/><rect x="10" y="2814.0345352437935" width="3.537735849056604" height="1.9862488846904398" fill="lightgrey"/><rect x="10" y="2860.9694011441766" width="4.245283018867925" height="1.9862488846904398" fill="lightgrey"/><rect x="10" y="2109.4971920432477" width="1.4150943396226414" height="1.9862488846904398" fill="lightgrey"/><rect x="10" y="747.4859602162389" width="0.7075471698113207" height="1.9862488846904398" fill="lightgrey"/><rect x="10" y="2344.300110218863" width="1.4150943396226414" height="1.9862488846904398" fill="lightgrey"/><rect x="10" y="3518.5718784443397" width="2.1226415094339623" height="1.9862488846904398" fill="lightgrey"/><rect x="10" y="3377.6386920694904" width="2.1226415094339623" height="1.9862488846904398" fill="lightgrey"/><rect x="10" y="2438.298430693329" width="1.4150943396226414" height="1.9862488846904398" fill="lightgrey"/><rect x="10" y="1780.6959533931665" width="0.7075471698113207" height="1.9862488846904398" fill="lightgrey"/><rect x="10" y="1921.6291397680154" width="0.7075471698113207" height="1.9862488846904398" fill="lightgrey"/><rect x="10" y="2485.233296593712" width="0.7075471698113207" height="1.9862488846904398" fill="lightgrey"/><rect x="10" y="1827.7594079672492" width="0.7075471698113207" height="1.9862488846904398" fill="lightgrey"/><rect x="10" y="2203.495512517714" width="0.7075471698113207" height="1.9862488846904398" fill="lightgrey"/><rect x="10" y="2532.168162494095" width="0.7075471698113207" height="1.9862488846904398" fill="lightgrey"/></g><g transform="translate(500, 80)" fill="none" font-size="10" font-family="UFO-Font;sans-serif" text-anchor="middle" class="scale-axis"><g class="tick" opacity="1" transform="translate(0.5,0)"><text fill="currentColor" y="-3" dy="0em">0</text></g><g class="tick" opacity="1" transform="translate(142.00943396226415,0)"><text fill="currentColor" y="-3" dy="0em">200</text></g><g class="tick" opacity="1" transform="translate(283.5188679245283,0)"><text fill="currentColor" y="-3" dy="0em">400</text></g><g class="tick" opacity="1" transform="translate(425.0283018867924,0)"><text fill="currentColor" y="-3" dy="0em">600</text></g><g class="tick" opacity="1" transform="translate(566.5377358490566,0)"><text fill="currentColor" y="-3" dy="0em">800</text></g></g></svg>